<?xml version="1.0" encoding="UTF-8" standalone="no"?>
<!DOCTYPE svg PUBLIC "-//W3C//DTD SVG 1.1//EN"
 "http://www.w3.org/Graphics/SVG/1.1/DTD/svg11.dtd">
<!-- Generated by graphviz version 5.0.0 (20220707.1540)
 -->
<!-- Title: dependencies Pages: 1 -->
<svg width="564pt" height="174pt"
 viewBox="0.00 0.00 564.00 173.80" xmlns="http://www.w3.org/2000/svg" xmlns:xlink="http://www.w3.org/1999/xlink">
<g id="graph0" class="graph" transform="scale(1 1) rotate(0) translate(4 169.8)">
<title>dependencies</title>
<polygon fill="white" stroke="transparent" points="-4,4 -4,-169.8 560,-169.8 560,4 -4,4"/>
<text text-anchor="middle" x="278" y="-8.2" font-family="sans-serif" font-size="14.00">dependencies</text>
<g id="clust1" class="cluster">
<title>cluster_AuthModule</title>
<polygon fill="none" stroke="black" stroke-dasharray="1,5" points="8,-32.8 8,-157.8 548,-157.8 548,-32.8 8,-32.8"/>
</g>
<g id="clust6" class="cluster">
<title>cluster_AuthModule_providers</title>
<polygon fill="none" stroke="black" points="126,-40.8 126,-92.8 540,-92.8 540,-40.8 126,-40.8"/>
</g>
<g id="clust3" class="cluster">
<title>cluster_AuthModule_imports</title>
<polygon fill="none" stroke="black" points="16,-40.8 16,-92.8 118,-92.8 118,-40.8 16,-40.8"/>
</g>
<!-- UserModule -->
<g id="node1" class="node">
<title>UserModule</title>
<polygon fill="#8dd3c7" stroke="black" points="109.99,-84.8 106.99,-88.8 85.99,-88.8 82.99,-84.8 24.01,-84.8 24.01,-48.8 109.99,-48.8 109.99,-84.8"/>
<text text-anchor="middle" x="67" y="-62.6" font-family="Times,serif" font-size="14.00">UserModule</text>
</g>
<!-- AuthModule -->
<g id="node2" class="node">
<title>AuthModule</title>
<polygon fill="#8dd3c7" stroke="black" points="312.55,-149.8 309.55,-153.8 288.55,-153.8 285.55,-149.8 225.45,-149.8 225.45,-113.8 312.55,-113.8 312.55,-149.8"/>
<text text-anchor="middle" x="269" y="-127.6" font-family="Times,serif" font-size="14.00">AuthModule</text>
</g>
<!-- UserModule&#45;&gt;AuthModule -->
<g id="edge1" class="edge">
<title>UserModule&#45;&gt;AuthModule</title>
<path fill="none" stroke="black" d="M67,-84.91C67,-104.14 67,-131.8 67,-131.8 67,-131.8 215.17,-131.8 215.17,-131.8"/>
<polygon fill="black" stroke="black" points="215.17,-135.3 225.17,-131.8 215.17,-128.3 215.17,-135.3"/>
</g>
<!-- AuthService -->
<g id="node3" class="node">
<title>AuthService</title>
<ellipse fill="#fdb462" stroke="black" cx="473" cy="-66.8" rx="59.11" ry="18"/>
<text text-anchor="middle" x="473" y="-62.6" font-family="Times,serif" font-size="14.00">AuthService</text>
</g>
<!-- AuthService&#45;&gt;AuthModule -->
<g id="edge2" class="edge">
<title>AuthService&#45;&gt;AuthModule</title>
<path fill="none" stroke="black" d="M473,-84.91C473,-104.14 473,-131.8 473,-131.8 473,-131.8 322.76,-131.8 322.76,-131.8"/>
<polygon fill="black" stroke="black" points="322.76,-128.3 312.76,-131.8 322.76,-135.3 322.76,-128.3"/>
</g>
<!-- JwtStrategy -->
<g id="node4" class="node">
<title>JwtStrategy</title>
<ellipse fill="#fdb462" stroke="black" cx="339" cy="-66.8" rx="56.77" ry="18"/>
<text text-anchor="middle" x="339" y="-62.6" font-family="Times,serif" font-size="14.00">JwtStrategy</text>
</g>
<!-- JwtStrategy&#45;&gt;AuthModule -->
<g id="edge3" class="edge">
<title>JwtStrategy&#45;&gt;AuthModule</title>
<path fill="none" stroke="black" d="M297.57,-79.33C297.57,-79.33 297.57,-103.65 297.57,-103.65"/>
<polygon fill="black" stroke="black" points="294.07,-103.65 297.57,-113.65 301.07,-103.65 294.07,-103.65"/>
</g>
<!-- LocalStrategy -->
<g id="node5" class="node">
<title>LocalStrategy</title>
<ellipse fill="#fdb462" stroke="black" cx="199" cy="-66.8" rx="65.4" ry="18"/>
<text text-anchor="middle" x="199" y="-62.6" font-family="Times,serif" font-size="14.00">LocalStrategy</text>
</g>
<!-- LocalStrategy&#45;&gt;AuthModule -->
<g id="edge4" class="edge">
<title>LocalStrategy&#45;&gt;AuthModule</title>
<path fill="none" stroke="black" d="M244.71,-79.64C244.71,-79.64 244.71,-103.32 244.71,-103.32"/>
<polygon fill="black" stroke="black" points="241.21,-103.32 244.71,-113.32 248.21,-103.32 241.21,-103.32"/>
</g>
</g>
</svg>
