<?xml version="1.0" encoding="UTF-8" standalone="no"?>
<!DOCTYPE svg PUBLIC "-//W3C//DTD SVG 1.1//EN"
 "http://www.w3.org/Graphics/SVG/1.1/DTD/svg11.dtd">
<!-- Generated by graphviz version 5.0.0 (20220707.1540)
 -->
<!-- Title: dependencies Pages: 1 -->
<svg width="1209pt" height="326pt"
 viewBox="0.00 0.00 1209.00 325.80" xmlns="http://www.w3.org/2000/svg" xmlns:xlink="http://www.w3.org/1999/xlink">
<g id="graph0" class="graph" transform="scale(1 1) rotate(0) translate(4 321.8)">
<title>dependencies</title>
<polygon fill="white" stroke="transparent" points="-4,4 -4,-321.8 1205,-321.8 1205,4 -4,4"/>
<text text-anchor="middle" x="600.5" y="-8.2" font-family="sans-serif" font-size="14.00">dependencies</text>
<g id="clust1" class="cluster">
<title>cluster_AppModule</title>
<polygon fill="none" stroke="black" stroke-dasharray="1,5" points="446,-108.8 446,-309.8 925,-309.8 925,-108.8 446,-108.8"/>
</g>
<g id="clust3" class="cluster">
<title>cluster_AppModule_imports</title>
<polygon fill="none" stroke="black" points="592,-116.8 592,-244.8 917,-244.8 917,-116.8 592,-116.8"/>
</g>
<g id="clust6" class="cluster">
<title>cluster_AppModule_providers</title>
<polygon fill="none" stroke="black" points="454,-192.8 454,-244.8 584,-244.8 584,-192.8 454,-192.8"/>
</g>
<g id="clust7" class="cluster">
<title>cluster_AuthModule</title>
<polygon fill="none" stroke="black" stroke-dasharray="1,5" points="8,-108.8 8,-176.8 438,-176.8 438,-108.8 8,-108.8"/>
</g>
<g id="clust12" class="cluster">
<title>cluster_AuthModule_providers</title>
<polygon fill="none" stroke="black" points="16,-116.8 16,-168.8 430,-168.8 430,-116.8 16,-116.8"/>
</g>
<g id="clust13" class="cluster">
<title>cluster_CartModule</title>
<polygon fill="none" stroke="black" stroke-dasharray="1,5" points="541,-32.8 541,-100.8 687,-100.8 687,-32.8 541,-32.8"/>
</g>
<g id="clust18" class="cluster">
<title>cluster_CartModule_providers</title>
<polygon fill="none" stroke="black" points="549,-40.8 549,-92.8 679,-92.8 679,-40.8 549,-40.8"/>
</g>
<g id="clust19" class="cluster">
<title>cluster_ProductModule</title>
<polygon fill="none" stroke="black" stroke-dasharray="1,5" points="695,-32.8 695,-100.8 867,-100.8 867,-32.8 695,-32.8"/>
</g>
<g id="clust24" class="cluster">
<title>cluster_ProductModule_providers</title>
<polygon fill="none" stroke="black" points="703,-40.8 703,-92.8 859,-92.8 859,-40.8 703,-40.8"/>
</g>
<g id="clust25" class="cluster">
<title>cluster_UserModule</title>
<polygon fill="none" stroke="black" stroke-dasharray="1,5" points="933,-184.8 933,-252.8 1193,-252.8 1193,-184.8 933,-184.8"/>
</g>
<g id="clust28" class="cluster">
<title>cluster_UserModule_exports</title>
<polygon fill="none" stroke="black" points="1081,-192.8 1081,-244.8 1185,-244.8 1185,-192.8 1081,-192.8"/>
</g>
<g id="clust30" class="cluster">
<title>cluster_UserModule_providers</title>
<polygon fill="none" stroke="black" points="941,-192.8 941,-244.8 1073,-244.8 1073,-192.8 941,-192.8"/>
</g>
<!-- AuthModule -->
<g id="node1" class="node">
<title>AuthModule</title>
<polygon fill="#8dd3c7" stroke="black" points="687.55,-236.8 684.55,-240.8 663.55,-240.8 660.55,-236.8 600.45,-236.8 600.45,-200.8 687.55,-200.8 687.55,-236.8"/>
<text text-anchor="middle" x="644" y="-214.6" font-family="Times,serif" font-size="14.00">AuthModule</text>
</g>
<!-- AppModule -->
<g id="node5" class="node">
<title>AppModule</title>
<polygon fill="#8dd3c7" stroke="black" points="748.66,-301.8 745.66,-305.8 724.66,-305.8 721.66,-301.8 665.34,-301.8 665.34,-265.8 748.66,-265.8 748.66,-301.8"/>
<text text-anchor="middle" x="707" y="-279.6" font-family="Times,serif" font-size="14.00">AppModule</text>
</g>
<!-- AuthModule&#45;&gt;AppModule -->
<g id="edge1" class="edge">
<title>AuthModule&#45;&gt;AppModule</title>
<path fill="none" stroke="black" d="M676.47,-236.91C676.47,-236.91 676.47,-255.79 676.47,-255.79"/>
<polygon fill="black" stroke="black" points="672.97,-255.79 676.47,-265.79 679.97,-255.79 672.97,-255.79"/>
</g>
<!-- CartModule -->
<g id="node2" class="node">
<title>CartModule</title>
<polygon fill="#8dd3c7" stroke="black" points="683.66,-160.8 680.66,-164.8 659.66,-164.8 656.66,-160.8 600.34,-160.8 600.34,-124.8 683.66,-124.8 683.66,-160.8"/>
<text text-anchor="middle" x="642" y="-138.6" font-family="Times,serif" font-size="14.00">CartModule</text>
</g>
<!-- CartModule&#45;&gt;AppModule -->
<g id="edge2" class="edge">
<title>CartModule&#45;&gt;AppModule</title>
<path fill="none" stroke="black" d="M683.71,-142.8C690.1,-142.8 694.61,-142.8 694.61,-142.8 694.61,-142.8 694.61,-255.66 694.61,-255.66"/>
<polygon fill="black" stroke="black" points="691.11,-255.66 694.61,-265.66 698.11,-255.66 691.11,-255.66"/>
</g>
<!-- ProductModule -->
<g id="node3" class="node">
<title>ProductModule</title>
<polygon fill="#8dd3c7" stroke="black" points="804.6,-160.8 801.6,-164.8 780.6,-164.8 777.6,-160.8 701.4,-160.8 701.4,-124.8 804.6,-124.8 804.6,-160.8"/>
<text text-anchor="middle" x="753" y="-138.6" font-family="Times,serif" font-size="14.00">ProductModule</text>
</g>
<!-- ProductModule&#45;&gt;AppModule -->
<g id="edge3" class="edge">
<title>ProductModule&#45;&gt;AppModule</title>
<path fill="none" stroke="black" d="M725.14,-160.94C725.14,-160.94 725.14,-255.73 725.14,-255.73"/>
<polygon fill="black" stroke="black" points="721.64,-255.72 725.14,-265.73 728.64,-255.73 721.64,-255.72"/>
</g>
<!-- UserModule -->
<g id="node4" class="node">
<title>UserModule</title>
<polygon fill="#8dd3c7" stroke="black" points="908.99,-160.8 905.99,-164.8 884.99,-164.8 881.99,-160.8 823.01,-160.8 823.01,-124.8 908.99,-124.8 908.99,-160.8"/>
<text text-anchor="middle" x="866" y="-138.6" font-family="Times,serif" font-size="14.00">UserModule</text>
</g>
<!-- UserModule&#45;&gt;AuthModule -->
<g id="edge6" class="edge">
<title>UserModule&#45;&gt;AuthModule</title>
<path fill="none" stroke="black" d="M844.5,-160.83C844.5,-181.57 844.5,-212.8 844.5,-212.8 844.5,-212.8 698,-212.8 698,-212.8"/>
<polygon fill="black" stroke="black" points="698,-209.3 688,-212.8 698,-216.3 698,-209.3"/>
</g>
<!-- UserModule&#45;&gt;AppModule -->
<g id="edge4" class="edge">
<title>UserModule&#45;&gt;AppModule</title>
<path fill="none" stroke="black" d="M866,-160.94C866,-199.03 866,-283.8 866,-283.8 866,-283.8 758.78,-283.8 758.78,-283.8"/>
<polygon fill="black" stroke="black" points="758.78,-280.3 748.78,-283.8 758.78,-287.3 758.78,-280.3"/>
</g>
<!-- UserService  -->
<g id="node12" class="node">
<title>UserService </title>
<polygon fill="#fb8072" stroke="black" points="1176.91,-236.8 1089.09,-236.8 1089.09,-200.8 1176.91,-200.8 1176.91,-236.8"/>
<text text-anchor="middle" x="1133" y="-214.6" font-family="Times,serif" font-size="14.00">UserService </text>
</g>
<!-- UserModule&#45;&gt;UserService  -->
<g id="edge12" class="edge">
<title>UserModule&#45;&gt;UserService </title>
<path fill="none" stroke="black" stroke-dasharray="5,2" d="M909.19,-142.8C984.76,-142.8 1133,-142.8 1133,-142.8 1133,-142.8 1133,-190.79 1133,-190.79"/>
<polygon fill="black" stroke="black" points="1129.5,-190.79 1133,-200.79 1136.5,-190.79 1129.5,-190.79"/>
</g>
<!-- AppService -->
<g id="node6" class="node">
<title>AppService</title>
<ellipse fill="#fdb462" stroke="black" cx="519" cy="-218.8" rx="56.75" ry="18"/>
<text text-anchor="middle" x="519" y="-214.6" font-family="Times,serif" font-size="14.00">AppService</text>
</g>
<!-- AppService&#45;&gt;AppModule -->
<g id="edge5" class="edge">
<title>AppService&#45;&gt;AppModule</title>
<path fill="none" stroke="black" d="M519,-236.91C519,-256.14 519,-283.8 519,-283.8 519,-283.8 655.28,-283.8 655.28,-283.8"/>
<polygon fill="black" stroke="black" points="655.28,-287.3 665.28,-283.8 655.28,-280.3 655.28,-287.3"/>
</g>
<!-- AuthService -->
<g id="node7" class="node">
<title>AuthService</title>
<ellipse fill="#fdb462" stroke="black" cx="363" cy="-142.8" rx="59.11" ry="18"/>
<text text-anchor="middle" x="363" y="-138.6" font-family="Times,serif" font-size="14.00">AuthService</text>
</g>
<!-- AuthService&#45;&gt;AuthModule -->
<g id="edge7" class="edge">
<title>AuthService&#45;&gt;AuthModule</title>
<path fill="none" stroke="black" d="M422.38,-142.8C489.01,-142.8 587.9,-142.8 587.9,-142.8 587.9,-142.8 587.9,-218.8 587.9,-218.8 587.9,-218.8 590.35,-218.8 590.35,-218.8"/>
<polygon fill="black" stroke="black" points="590.35,-222.3 600.35,-218.8 590.35,-215.3 590.35,-222.3"/>
</g>
<!-- JwtStrategy -->
<g id="node8" class="node">
<title>JwtStrategy</title>
<ellipse fill="#fdb462" stroke="black" cx="229" cy="-142.8" rx="56.77" ry="18"/>
<text text-anchor="middle" x="229" y="-138.6" font-family="Times,serif" font-size="14.00">JwtStrategy</text>
</g>
<!-- JwtStrategy&#45;&gt;AuthModule -->
<g id="edge8" class="edge">
<title>JwtStrategy&#45;&gt;AuthModule</title>
<path fill="none" stroke="black" d="M229,-161.04C229,-168.23 229,-174.8 229,-174.8 229,-174.8 655.96,-174.8 655.96,-174.8 655.96,-174.8 655.96,-190.65 655.96,-190.65"/>
<polygon fill="black" stroke="black" points="652.46,-190.65 655.96,-200.65 659.46,-190.65 652.46,-190.65"/>
</g>
<!-- LocalStrategy -->
<g id="node9" class="node">
<title>LocalStrategy</title>
<ellipse fill="#fdb462" stroke="black" cx="89" cy="-142.8" rx="65.4" ry="18"/>
<text text-anchor="middle" x="89" y="-138.6" font-family="Times,serif" font-size="14.00">LocalStrategy</text>
</g>
<!-- LocalStrategy&#45;&gt;AuthModule -->
<g id="edge9" class="edge">
<title>LocalStrategy&#45;&gt;AuthModule</title>
<path fill="none" stroke="black" d="M89,-160.84C89,-173.36 89,-187.8 89,-187.8 89,-187.8 628.09,-187.8 628.09,-187.8 628.09,-187.8 628.09,-190.77 628.09,-190.77"/>
<polygon fill="black" stroke="black" points="624.59,-190.77 628.09,-200.77 631.59,-190.77 624.59,-190.77"/>
</g>
<!-- CartService -->
<g id="node10" class="node">
<title>CartService</title>
<ellipse fill="#fdb462" stroke="black" cx="614" cy="-66.8" rx="56.74" ry="18"/>
<text text-anchor="middle" x="614" y="-62.6" font-family="Times,serif" font-size="14.00">CartService</text>
</g>
<!-- CartService&#45;&gt;CartModule -->
<g id="edge10" class="edge">
<title>CartService&#45;&gt;CartModule</title>
<path fill="none" stroke="black" d="M635.4,-83.67C635.4,-83.67 635.4,-114.65 635.4,-114.65"/>
<polygon fill="black" stroke="black" points="631.9,-114.65 635.4,-124.65 638.9,-114.65 631.9,-114.65"/>
</g>
<!-- ProductService -->
<g id="node11" class="node">
<title>ProductService</title>
<ellipse fill="#fdb462" stroke="black" cx="781" cy="-66.8" rx="70.07" ry="18"/>
<text text-anchor="middle" x="781" y="-62.6" font-family="Times,serif" font-size="14.00">ProductService</text>
</g>
<!-- ProductService&#45;&gt;ProductModule -->
<g id="edge11" class="edge">
<title>ProductService&#45;&gt;ProductModule</title>
<path fill="none" stroke="black" d="M757.76,-84.05C757.76,-84.05 757.76,-114.56 757.76,-114.56"/>
<polygon fill="black" stroke="black" points="754.26,-114.56 757.76,-124.56 761.26,-114.56 754.26,-114.56"/>
</g>
<!-- UserService -->
<g id="node13" class="node">
<title>UserService</title>
<ellipse fill="#fdb462" stroke="black" cx="1007" cy="-218.8" rx="58.46" ry="18"/>
<text text-anchor="middle" x="1007" y="-214.6" font-family="Times,serif" font-size="14.00">UserService</text>
</g>
<!-- UserService&#45;&gt;UserModule -->
<g id="edge13" class="edge">
<title>UserService&#45;&gt;UserModule</title>
<path fill="none" stroke="black" d="M951.8,-224.8C920.48,-224.8 887.5,-224.8 887.5,-224.8 887.5,-224.8 887.5,-171 887.5,-171"/>
<polygon fill="black" stroke="black" points="891,-171 887.5,-161 884,-171 891,-171"/>
</g>
</g>
</svg>
